HIERARCHY
ROOT hip
{
	OFFSET 0.000000 0.000000 0.000000 
	CHANNELS 6 Xposition Yposition Zposition Xrotation Zrotation Yrotation
	JOINT abdomen
	{
		OFFSET 0.000000 3.402643 0.000000 
		CHANNELS 3 Xrotation Zrotation Yrotation
		JOINT chest
		{
			OFFSET 0.000000 8.438565 -0.680529 
			CHANNELS 3 Xrotation Zrotation Yrotation
			JOINT neck
			{
				OFFSET 0.000000 10.207942 -0.272212 
				CHANNELS 3 Xrotation Zrotation Yrotation
				JOINT head
				{
					OFFSET 0.000000 3.130431 0.000000 
					CHANNELS 3 Xrotation Zrotation Yrotation
					End Site
					{
						OFFSET 0.000000 3.130435 0.000000 
					}
				}
			}
			JOINT lCollar
			{
				OFFSET 3.470700 6.669187 -0.816635 
				CHANNELS 3 Yrotation Zrotation Xrotation
				JOINT lShldr
				{
					OFFSET 3.198488 0.000000 0.000000 
					CHANNELS 3 Zrotation Yrotation Xrotation
					JOINT lForeArm
					{
						OFFSET 10.139888 0.000000 0.000000 
						CHANNELS 3 Yrotation Zrotation Xrotation
						JOINT lHand
						{
							OFFSET 8.370511 0.000000 0.000000 
							CHANNELS 3 Zrotation Yrotation Xrotation
							End Site
							{
								OFFSET 4.083176 0.000000 0.000000 
							}
						}
					}
				}
			}
			JOINT rCollar
			{
				OFFSET -3.470700 6.669187 -0.816635 
				CHANNELS 3 Yrotation Zrotation Xrotation
				JOINT rShldr
				{
					OFFSET -3.198488 0.000000 0.000000 
					CHANNELS 3 Zrotation Yrotation Xrotation
					JOINT rForeArm
					{
						OFFSET -10.139888 0.000000 0.000000 
						CHANNELS 3 Yrotation Zrotation Xrotation
						JOINT rHand
						{
							OFFSET -8.370511 0.000000 0.000000 
							CHANNELS 3 Zrotation Yrotation Xrotation
							End Site
							{
								OFFSET -4.083176 0.000000 0.000000 
							}
						}
					}
				}
			}
		}
	}
	JOINT lThigh
	{
		OFFSET 5.308129 -1.633274 1.361059 
		CHANNELS 3 Xrotation Zrotation Yrotation
		JOINT lShin
		{
			OFFSET -2.041588 -20.007561 0.000000 
			CHANNELS 3 Xrotation Zrotation Yrotation
			JOINT lFoot
			{
				OFFSET 0.000000 -19.190928 -1.224953 
				CHANNELS 3 Xrotation Yrotation Zrotation
				End Site
				{
					OFFSET 0.000000 -2.449906 4.627600 
				}
			}
		}
	}
	JOINT rThigh
	{
		OFFSET -5.308129 -1.633274 1.361059 
		CHANNELS 3 Xrotation Zrotation Yrotation
		JOINT rShin
		{
			OFFSET 2.041588 -20.007561 0.000000 
			CHANNELS 3 Xrotation Zrotation Yrotation
			JOINT rFoot
			{
				OFFSET 0.000000 -19.190928 -1.224953 
				CHANNELS 3 Xrotation Yrotation Zrotation
				End Site
				{
					OFFSET 0.000000 -2.449906 4.627600 
				}
			}
		}
	}
}
MOTION
Frames: 16
Frame Time: 0.033333
-40.388756 49.363079 -104.294067 -29.990234 -47.636719 141.106064 54.873257 -19.560446 -2.805409 -23.203125 0.517578 -1.093660 51.063168 8.107644 2.471410 -105.214844 -12.099608 16.941313 2.000000 -2.000000 0.000000 -102.470703 27.880859 -74.296875 -65.150269 -0.885759 -2.830096 -32.966656 52.277672 -41.897270 -2.000000 2.000000 0.000000 -12.138672 45.058598 -86.718750 83.729416 -0.363134 -2.716762 48.929855 -44.769714 -53.689724 -85.262375 -9.590302 41.156830 34.609306 -4.774610 -2.847975 -8.456315 7.304916 -3.063254 -74.675537 3.007881 -17.063955 46.777351 3.564264 3.615396 27.210003 2.926753 -9.426984 
-40.328346 49.339447 -104.204628 -29.990234 -47.636719 141.106064 54.873257 -19.560446 -2.805409 -23.203125 0.517578 -1.093660 51.063168 8.107644 2.471410 -105.000000 -12.060548 16.951084 2.000000 -2.000000 0.000000 -102.480469 27.646482 -74.419296 -64.972214 -0.714054 -2.399910 -33.229668 52.208725 -41.696182 -2.000000 2.000000 0.000000 -12.138671 45.136719 -86.614174 83.729416 -0.363134 -2.716762 48.603546 -44.118252 -53.295822 -85.255600 -9.428738 41.181026 34.796005 -4.774693 -2.884246 -8.490824 7.370631 -3.191426 -74.808403 3.272281 -17.716379 46.761284 3.427359 3.673990 27.456532 3.258621 -9.873747 
-40.251274 49.307938 -104.109390 -29.990234 -47.636719 141.106064 54.873257 -19.560446 -2.805409 -23.203125 0.517578 -1.093660 51.063168 8.107644 2.471410 -104.833984 -12.138671 17.080078 2.000000 -2.000000 0.000000 -102.490234 27.412109 -74.556053 -64.972214 -0.714054 -2.399910 -33.725067 52.011223 -41.752094 -2.000000 2.000000 0.000000 -12.255860 45.283203 -86.474609 83.729416 -0.363134 -2.716762 48.677212 -44.033630 -53.001045 -85.434219 -9.231749 41.220074 35.153660 -4.755010 -2.899152 -8.499832 7.306246 -3.220963 -74.811981 3.369178 -17.346115 46.600929 3.554520 3.615997 27.394451 2.952785 -9.393975 
-40.168888 49.260666 -104.013458 -30.097656 -47.783199 141.301376 54.906464 -19.480665 -2.959887 -23.203125 0.693359 -1.074219 51.063168 8.107644 2.471410 -104.833984 -12.138671 17.255859 2.000000 -2.000000 0.000000 -102.929688 27.187500 -75.288506 -65.162056 -1.035659 -2.547433 -33.774895 52.257576 -41.033367 -2.000000 2.000000 0.000000 -11.328126 45.712891 -85.898438 83.714226 -0.383340 -2.874321 48.771408 -43.930393 -52.907848 -85.621864 -9.083897 41.433449 35.321587 -4.755147 -2.903851 -8.545928 7.144302 -3.154052 -74.811981 3.369181 -17.346115 46.430031 3.564107 3.441842 27.150614 2.787514 -9.291374 
-40.079094 49.244915 -103.929108 -30.185547 -47.939453 141.350174 54.906464 -19.480665 -2.959887 -23.203125 0.693359 -1.074219 51.063168 8.107644 2.471410 -104.628906 -12.099608 17.089842 2.000000 -2.000000 0.000000 -103.027344 26.933592 -75.039063 -64.979179 -0.864368 -2.293233 -33.713150 52.040142 -41.312912 -2.000000 2.000000 0.000000 -11.914063 45.859375 -86.301582 83.729141 -0.383198 -2.708148 49.494991 -44.062393 -53.778816 -85.813141 -8.744730 41.512535 35.680271 -4.715905 -2.942706 -8.410132 7.048726 -3.195397 -74.952431 3.604830 -17.833599 46.413353 3.427540 3.520446 27.064571 3.032312 -9.759641 
-39.988716 49.229156 -103.827034 -30.185547 -47.939453 141.350174 54.906464 -19.480665 -2.959887 -23.203125 0.693359 -1.074219 51.063168 8.107644 2.471410 -104.453125 -12.167968 17.226564 2.000000 -2.000000 0.000000 -103.632813 27.060543 -75.644531 -65.162056 -1.035659 -2.547433 -33.595741 52.309834 -41.485809 -2.000000 2.000000 0.000000 -11.357422 46.113281 -85.429688 83.710609 -0.556422 -2.757311 49.678810 -44.521332 -53.807095 -85.991867 -8.557226 41.510895 36.034973 -4.716329 -2.973206 -8.660774 6.872968 -3.082434 -74.782417 3.750080 -17.609613 46.235672 3.446861 3.524007 27.066204 3.035349 -9.787979 
-39.893135 49.197647 -103.733658 -30.185547 -47.939453 141.525940 54.906464 -19.480665 -2.959887 -23.203125 0.517578 -1.093660 51.063168 8.107644 2.471410 -104.414055 -12.070312 17.078035 2.000000 -2.000000 0.000000 -104.072266 27.089844 -75.429688 -65.150269 -0.885759 -2.830096 -33.090458 52.516819 -41.439899 -2.000000 2.000000 0.000000 -11.103515 46.484375 -85.256592 83.903885 -0.209975 -2.658985 49.997128 -44.546288 -54.312302 -86.003777 -8.350512 41.351238 36.205059 -4.696250 -2.972537 -8.707816 6.871961 -3.274081 -74.772156 3.935934 -17.554028 45.704872 3.476003 3.503571 27.219463 3.115795 -9.355535 
-39.790951 49.189762 -103.632858 -30.185547 -47.939453 141.525940 54.906464 -19.480665 -2.959887 -23.203125 0.517578 -1.093660 51.063168 8.107644 2.471410 -104.414055 -12.070312 17.078035 2.000000 -2.000000 0.000000 -104.355469 26.708984 -75.347176 -65.313797 -0.645243 -2.394136 -33.263115 52.434906 -41.444664 -2.000000 2.000000 0.000000 -10.605468 46.455078 -83.947998 84.062431 -0.585105 -2.768753 49.998043 -44.536545 -54.322067 -86.015121 -8.007704 41.390171 36.591030 -4.673750 -3.017906 -8.644513 6.807991 -3.565274 -74.584412 4.101787 -17.487116 45.709923 3.473541 3.638271 27.230984 3.145119 -9.553318 
-39.692024 49.166130 -103.534622 -29.951172 -48.007813 141.408768 54.906464 -19.480665 -2.959887 -23.203125 0.517578 -1.269441 51.063168 8.107644 2.471410 -104.414055 -12.070312 16.902256 2.000000 -2.000000 0.000000 -104.531250 26.406248 -75.537109 -65.325829 -0.845327 -2.470500 -33.844669 52.856842 -41.678326 -2.000000 2.000000 0.000000 -10.439453 46.611328 -83.593750 84.053215 -0.564476 -2.787017 49.936203 -44.592316 -54.411449 -86.025284 -7.821895 41.389927 36.598721 -4.702842 -2.998651 -8.746143 6.746172 -3.180412 -74.432457 4.228471 -17.085283 45.377651 3.658389 3.355854 27.366236 3.175071 -9.175605 
-39.633465 49.166130 -103.422729 -29.853518 -47.841801 141.220703 55.135311 -19.550594 -3.135620 -23.203125 0.517578 -1.269441 51.063168 8.107644 2.471410 -104.541016 -11.894529 16.289064 2.000000 -2.000000 0.000000 -104.453125 26.005859 -75.615234 -65.338120 -1.016727 -2.558312 -33.969067 52.802643 -41.704082 -2.000000 2.000000 0.000000 -10.576172 46.650394 -83.486328 84.257019 -0.382067 -2.727639 49.830582 -44.411106 -54.682259 -86.018021 -7.660917 41.393936 36.748886 -4.677533 -3.013977 -8.718454 6.879390 -3.291678 -74.050606 4.433558 -17.346483 45.019722 3.551273 3.614661 27.414778 3.207529 -9.506948 
-39.630798 49.174004 -103.277390 -29.179686 -47.675777 140.568954 55.449440 -19.592892 -2.998318 -23.203125 0.341797 -1.464844 51.063168 8.107644 2.471410 -104.873047 -11.757813 16.003868 2.000000 -2.000000 0.000000 -103.994141 25.498049 -75.103218 -65.514175 -1.017293 -2.568058 -33.953705 52.586861 -41.789085 -2.000000 2.000000 0.000000 -10.126954 46.503906 -83.193359 84.432800 -0.391816 -2.728204 49.543121 -44.358288 -54.283741 -85.672005 -7.481124 41.369446 36.748890 -4.677528 -3.013976 -8.153461 6.780404 -3.248359 -73.507530 4.610359 -17.091776 44.289566 3.573728 3.400563 27.580177 3.209158 -9.324118 
-39.570629 49.150375 -103.145462 -28.513399 -47.517490 140.257202 55.870281 -19.630985 -3.203806 -23.212891 0.166016 -1.660156 51.063168 8.107644 2.471410 -104.980469 -11.591798 15.496084 2.000000 -2.000000 0.000000 -103.808594 25.332029 -74.970703 -65.514175 -1.017293 -2.568058 -33.929909 52.360996 -41.882076 -2.000000 2.000000 0.000000 -10.283202 46.640625 -83.137428 84.404770 -0.574226 -2.787580 49.907223 -44.297314 -54.658039 -85.329254 -7.276627 41.163727 36.748890 -4.677516 -3.013972 -8.272819 7.072486 -3.460325 -72.785805 4.961811 -17.112478 44.112263 3.583406 3.399980 27.557095 3.515581 -9.239183 
-39.370903 49.174004 -103.061913 -27.763670 -47.167969 139.436203 55.847347 -19.714170 -3.036919 -23.222656 -0.009766 -1.855469 51.063168 8.107644 2.471410 -104.658203 -11.240233 15.097658 2.000000 -2.000000 0.000000 -103.291016 25.566406 -74.667969 -65.338120 -1.016727 -2.558312 -33.966282 52.078613 -42.403008 -2.000000 2.000000 0.000000 -9.960938 46.855469 -82.958984 84.257019 -0.382067 -2.727639 49.499229 -44.424713 -54.072845 -84.984161 -7.083780 41.157307 36.926601 -4.667116 -3.045309 -8.291387 7.167687 -3.597777 -71.921463 5.253964 -16.410721 43.610397 3.769248 3.420369 27.461132 3.173142 -8.428766 
-39.054985 49.174004 -102.999191 -27.099609 -46.972656 139.104187 55.767830 -19.932318 -3.351622 -23.037109 -0.175781 -1.699219 51.063168 8.107644 2.471410 -104.062492 -10.761719 14.343881 2.000000 -2.000000 0.000000 -102.978516 25.820311 -74.316406 -65.148277 -0.704871 -2.410223 -34.010548 51.806305 -42.740105 -2.000000 2.000000 0.000000 -9.169922 46.845703 -82.727249 83.903885 -0.209975 -2.658985 49.750912 -44.456245 -53.522148 -84.287071 -6.698895 40.902985 37.312328 -4.663979 -3.038493 -8.645558 7.258204 -3.461538 -70.832695 5.595944 -16.198536 42.902088 3.795122 3.392455 27.444958 3.470350 -8.344367 
-38.680065 49.213402 -102.943878 -26.142578 -46.708984 138.196030 55.494408 -20.272213 -3.454968 -22.861330 -0.361328 -1.718750 51.063168 8.107644 2.471410 -103.320313 -10.302733 13.740236 2.000000 -2.000000 0.000000 -102.666016 26.250002 -74.487869 -65.162056 -1.035659 -2.547433 -34.039833 51.787800 -42.709972 -2.000000 2.000000 0.000000 -8.486328 46.943359 -82.880859 83.377861 -0.353385 -2.716197 49.313942 -44.592106 -52.488491 -83.415382 -6.524709 40.648155 37.462349 -4.638611 -3.053617 -8.613846 7.409112 -3.564506 -69.538506 5.927899 -16.451080 42.036285 3.769118 3.448677 27.661301 3.510441 -8.704033 
-38.271587 49.268547 -102.848877 -25.478514 -46.494141 137.737061 55.223389 -20.621046 -3.561993 -22.695313 -0.537109 -1.572360 51.063168 8.107644 2.471410 -102.783203 -9.892578 13.338167 2.000000 -2.000000 0.000000 -102.177734 27.070311 -74.077591 -65.150269 -0.885759 -2.830096 -33.536655 51.574062 -42.371582 -2.000000 2.000000 0.000000 -7.109375 46.923828 -82.815132 82.498962 -0.314388 -2.713934 49.388149 -45.104565 -51.523102 -82.544670 -6.311223 40.271008 37.621578 -4.608825 -3.096397 -8.592675 7.712578 -4.005837 -68.118011 6.250455 -15.666629 40.972328 3.915502 3.240729 27.621984 3.495922 -8.370470 
